<svg width="804" height="1464" viewBox="0 0 804 1464" fill="none" xmlns="http://www.w3.org/2000/svg">
<path d="M49.8726 -91.6417C-1.6593 -209.148 62.6065 -277.538 101.181 -297.045L665.539 -622.878L1758.44 1270.08L1593.2 1444.39C1557.02 1468.04 1465.66 1489.5 1389.66 1386.12C1294.66 1256.89 1243.3 1291.52 1187.77 1295.39C1132.24 1299.26 744.284 1392.52 636.705 1294.39C531.684 1198.6 547.472 1043.9 414.938 1002.68C308.911 969.7 262.038 905.583 247.521 880.439C233.004 855.294 200.913 782.643 225.368 674.332C255.936 538.943 177.687 429.897 75.0662 331.606C-27.5548 233.315 -3.61863 174.721 27.4983 128.565C58.6151 82.4079 114.287 55.2408 49.8726 -91.6417Z" fill="#008AAA"/>
<path d="M49.8726 -91.6417C-1.6593 -209.148 62.6065 -277.538 101.181 -297.045L665.539 -622.878L1758.44 1270.08L1593.2 1444.39C1557.02 1468.04 1465.66 1489.5 1389.66 1386.12C1294.66 1256.89 1243.3 1291.52 1187.77 1295.39C1132.24 1299.26 744.284 1392.52 636.705 1294.39C531.684 1198.6 547.472 1043.9 414.938 1002.68C308.911 969.7 262.038 905.583 247.521 880.439C233.004 855.294 200.913 782.643 225.368 674.332C255.936 538.943 177.687 429.897 75.0662 331.606C-27.5548 233.315 -3.61863 174.721 27.4983 128.565C58.6151 82.4079 114.287 55.2408 49.8726 -91.6417Z" fill="#0A657A"/>
</svg>
