<svg width="1053" height="1274" viewBox="0 0 1053 1274" fill="none" xmlns="http://www.w3.org/2000/svg">
<path d="M92.3301 -636.757C57.9834 -764.356 131.657 -822.876 172.788 -836.186L780.342 -1071.86L1594.74 1027.58L987.189 1263.26C947.842 1281.17 853.978 1287.64 793.293 1170.26C717.437 1023.53 661.428 1050.02 605.692 1044.66C549.955 1039.3 488.868 1020.15 475.072 874.739C461.277 729.328 423.86 596.255 298.075 532.373C197.448 481.268 160.071 408.511 149.253 380.624C138.436 352.737 116.971 273.807 156.813 168.212C206.615 36.2186 144.506 -87.2764 56.6347 -203.952C-31.2363 -320.628 0.956521 -375.964 38.5002 -417.506C76.0438 -459.048 135.263 -477.259 92.3301 -636.757Z" fill="#1C829D"/>
<path d="M92.3301 -636.757C57.9834 -764.356 131.657 -822.876 172.788 -836.186L780.342 -1071.86L1594.74 1027.58L987.189 1263.26C947.842 1281.17 853.978 1287.64 793.293 1170.26C717.437 1023.53 661.428 1050.02 605.692 1044.66C549.955 1039.3 488.868 1020.15 475.072 874.739C461.277 729.328 423.86 596.255 298.075 532.373C197.448 481.268 160.071 408.511 149.253 380.624C138.436 352.737 116.971 273.807 156.813 168.212C206.615 36.2186 144.506 -87.2764 56.6347 -203.952C-31.2363 -320.628 0.956521 -375.964 38.5002 -417.506C76.0438 -459.048 135.263 -477.259 92.3301 -636.757Z" fill="url(#paint0_linear_4_36)"/>
<defs>
<linearGradient id="paint0_linear_4_36" x1="209.795" y1="-734.873" x2="885.922" y2="1786.31" gradientUnits="userSpaceOnUse">
<stop stop-color="#3BBADB"/>
<stop offset="0.567441" stop-color="#3BBADB"/>
<stop offset="0.837441" stop-color="#3BBADB"/>
<stop offset="1" stop-color="#3BBADB"/>
</linearGradient>
</defs>
</svg>
